<svg width="173" height="36" viewBox="0 0 173 36" fill="none" xmlns="http://www.w3.org/2000/svg">
<path d="M14.1004 4.08172V7.73086H7.0502V0L14.1004 4.08172Z" fill="white"/>
<path d="M7.0502 7.66182V27.5866L0 23.5046V3.5801L7.0502 7.66182Z" fill="white"/>
<path d="M20.0659 9.86851V15.2495L13.0157 19.3313V5.28358L20.0659 9.86851Z" fill="white"/>
<path d="M20.0659 23.6597V34.9895L13.0157 30.9078V19.5782L20.0659 23.6597Z" fill="white"/>
<path d="M20.0659 7.52453V15.249L7.08012 7.73086H14.1004V4.07056L20.0659 7.52453Z" fill="white"/>
<path d="M40.5469 9.02556C41.9353 9.02556 43.0806 9.33881 43.9831 9.54765L43.1501 14.5249C42.6641 14.3856 41.3105 14.1072 39.6445 14.1072C35.7224 14.1072 34.577 17.1701 34.577 19.8153V28.5516H29.3013V9.02556H34.577V11.9144H34.8894C36.0001 10.0349 37.1802 9.02556 40.5469 9.02556Z" fill="white"/>
<path d="M57.8934 9.02556C66.154 9.02556 66.6747 15.9519 66.6747 18.806V28.5516H61.4336V18.806C61.4336 17.2745 61.4336 13.5851 56.3662 13.5851C51.8194 13.5851 50.8128 16.5088 50.8128 19.154V28.5516H45.5371V3.42184H50.8128V11.9144H51.0558C52.3053 10.1741 54.4225 9.02556 57.8934 9.02556Z" fill="white"/>
<path d="M73.1795 20.0242C73.5613 22.6346 75.1232 23.9224 78.5247 23.9224C81.6832 23.9224 83.245 23.0523 83.731 21.7645H88.8331C88.3125 25.976 84.9111 28.5516 78.5247 28.5516C71.8606 28.5516 68.0774 25.2102 68.0774 18.7016C68.0774 12.3321 71.9647 8.85153 78.5247 8.85153C81.2667 8.85153 83.488 9.54765 85.1193 10.6962V10.6614C88.8679 13.2371 89.2149 17.3441 88.9373 20.0242H73.1795ZM78.5247 13.4807C75.6092 13.4807 74.0126 14.5597 73.3878 16.5436H83.6616C83.2451 15.0818 82.2732 13.4807 78.5247 13.4807Z" fill="white"/>
<path d="M117.27 9.02556C125.496 9.02556 125.704 15.9519 125.739 18.806V28.5516H120.463V18.806C120.463 17.2745 120.532 13.5851 115.743 13.5851C111.196 13.5851 110.883 16.5088 110.883 19.154L110.849 19.0496V28.5516H105.608V18.806C105.608 17.2745 105.677 13.5851 100.887 13.5851C96.3405 13.5851 96.0281 16.5088 96.0281 19.154V28.5516H90.7871V9.19959H96.0281V11.9144H96.2711C97.5206 10.1741 99.2561 9.02556 102.727 9.02556C106.232 9.02556 108.211 10.2786 109.322 11.9144H109.565C110.849 10.1741 112.411 9.02556 117.27 9.02556Z" fill="white"/>
<path d="M132.838 28.5516H127.597V9.16478H132.838V28.5516ZM132.838 7.77255H127.597V3.03897H132.838V7.77255Z" fill="white"/>
<path d="M145.197 6.8676C143.358 6.8676 142.837 7.28527 142.698 9.02556H149.675V13.3763H142.629V28.5516H137.353V13.3763H134.715V9.02556H137.423C137.735 3.42184 139.366 2.13402 143.323 2.13402C146.655 2.13402 150.022 2.6213 150.022 2.6213V7.11124C150.022 7.11124 147.21 6.8676 145.197 6.8676Z" fill="white"/>
<path d="M167.412 9.06037H173L162.692 36H157.103L159.95 28.5864H158.075L150.578 9.06037H156.132L161.789 23.7484L167.412 9.06037Z" fill="white"/>
</svg>
