<svg width="141" height="36" viewBox="0 0 141 36" fill="none" xmlns="http://www.w3.org/2000/svg">
<g clip-path="url(#clip0_80_171)">
<path d="M33.6139 9.06504L32.8331 7.72046C32.6163 7.3301 32.1392 7.19998 31.7488 7.41685C31.7054 7.46022 31.6187 7.5036 31.5753 7.54697L29.797 9.32528C29.5368 9.58553 29.4934 10.0193 29.7103 10.3229C30.3609 11.3205 30.8813 12.4048 31.2717 13.5325C33.744 20.8626 29.797 28.8 22.4669 31.2723C21.0356 31.7494 19.5175 32.0096 17.9994 32.0096C15.7006 32.0096 13.4452 31.4458 11.45 30.3614L14.4862 27.3253C19.6476 29.2771 25.4163 26.6747 27.3681 21.5132C28.3223 18.9542 28.1922 16.0915 27.0211 13.6193C26.8476 13.2289 26.3705 13.0554 25.9368 13.2289C25.85 13.2723 25.7633 13.3156 25.7199 13.4024L23.8982 15.1807C23.6813 15.3976 23.638 15.6578 23.6813 15.9181L23.8548 16.5687C24.5922 19.7783 22.597 23.0313 19.3874 23.7687C17.9127 24.1156 16.3512 23.8988 15.05 23.1181L14.2693 22.6409C13.9657 22.4675 13.5753 22.5108 13.3151 22.7711L5.94158 30.1446C5.63796 30.4482 5.63796 30.9687 5.94158 31.2723C5.98495 31.3156 5.98495 31.3156 6.02832 31.359L7.11266 32.1831C10.1922 34.6988 14.0524 36 17.9994 36C27.9319 36 35.9994 27.9325 35.9994 17.9566C35.9994 14.8337 35.1753 11.7976 33.6139 9.06504Z" fill="#6F6C68"/>
<path d="M28.9301 3.73012C25.8072 1.30121 21.947 0 18 0C8.06747 0 0 8.06747 0 18.0434C0 21.1663 0.824096 24.2458 2.34217 26.9349L3.12289 28.2795C3.33976 28.6699 3.81687 28.8 4.20723 28.5831C4.2506 28.5398 4.33735 28.4964 4.38072 28.453L6.15904 26.6747C6.41928 26.4145 6.46265 25.9807 6.24578 25.6771C5.59518 24.6795 5.0747 23.5952 4.68434 22.4675C2.21205 15.1374 6.15904 7.2 13.4892 4.72771C14.9205 4.2506 16.4386 3.99036 17.9566 3.99036C20.2554 3.99036 22.5108 4.55422 24.506 5.63855L21.4699 8.6747C16.3084 6.72289 10.5398 9.3253 8.58795 14.4867C8.15422 15.6145 7.93735 16.8289 7.93735 18.0434C7.93735 18.2169 7.98072 18.9542 7.98072 19.0843C8.11084 20.212 8.41446 21.3398 8.93494 22.3807C9.10843 22.7711 9.58554 22.9446 10.0193 22.7711C10.106 22.7277 10.1928 22.6843 10.2361 22.5976L12.0578 20.7759C12.2747 20.559 12.3181 20.2988 12.2747 20.0386L12.1446 19.388C11.4072 16.1783 13.4024 12.9253 16.612 12.188C18.0867 11.841 19.6482 12.0578 20.9494 12.8386L21.7301 13.3157C22.0337 13.4892 22.4241 13.4458 22.6843 13.1855L30.0578 5.81205C30.3614 5.50843 30.3614 4.98795 30.0578 4.68434C30.0145 4.64096 30.0145 4.64096 29.9711 4.59759L28.9301 3.73012Z" fill="#6F6C68"/>
<path d="M59.2478 22.9879C58.9875 22.7711 58.5538 22.7711 58.2936 23.0313C57.1225 23.9422 55.7779 24.7663 53.8261 24.7663C50.2261 24.7663 47.3201 21.7301 47.3201 18.0434C47.3201 14.3566 50.2261 11.2771 53.8261 11.2771C55.3875 11.2771 57.0357 11.9277 58.2936 13.012C58.4237 13.1855 58.6405 13.2723 58.8574 13.2723C59.0309 13.2723 59.2044 13.1422 59.3345 13.012L60.5056 11.7976C60.6357 11.6675 60.7225 11.4506 60.7225 11.2337C60.7225 11.0169 60.6357 10.8434 60.4622 10.6699C58.4237 8.89156 56.3851 8.11084 53.8261 8.11084C48.361 8.11084 43.8936 12.5783 43.8936 18.0867C43.8936 23.5518 48.3177 28.0193 53.8261 28.0193C56.3417 28.0626 58.7273 27.0651 60.5056 25.3301C60.6791 25.1566 60.7658 24.9398 60.7225 24.7229C60.7225 24.5494 60.6357 24.3759 60.5056 24.2458L59.2478 22.9879Z" fill="#6F6C68"/>
<path d="M67.7491 8.32776H65.9708C65.5804 8.32776 65.2334 8.67475 65.2334 9.06511V26.935C65.2334 27.3253 65.5804 27.6723 65.9708 27.6723H67.7491C68.1394 27.6723 68.4864 27.3253 68.4864 26.935V9.06511C68.4864 8.67475 68.1828 8.32776 67.7491 8.32776Z" fill="#6F6C68"/>
<path d="M88.6989 14.3567C88.6989 11.0603 85.9664 8.32776 82.6266 8.32776H75.3399C74.9062 8.32776 74.6025 8.67475 74.6025 9.06511V26.935C74.6025 27.3687 74.9495 27.6723 75.3399 27.6723H77.0748C77.4652 27.6723 77.8122 27.3253 77.8122 26.935V20.2988H81.4556L84.9688 27.3253C85.0989 27.5422 85.3592 27.7157 85.6194 27.7157H87.7013C87.9616 27.7157 88.2218 27.5856 88.3519 27.3687C88.4821 27.1085 88.4821 26.8482 88.3519 26.588L84.7953 19.9519C87.2242 18.8675 88.6989 16.7422 88.6989 14.3567ZM85.4025 14.4C85.4025 16.0916 84.0146 17.5229 82.3664 17.5229H77.8122V11.4506H82.4098C84.0146 11.4073 85.4025 12.7952 85.4025 14.4Z" fill="#6F6C68"/>
<path d="M107.739 22.9879C107.479 22.7711 107.045 22.7711 106.785 23.0313C105.614 23.9422 104.27 24.7663 102.318 24.7663C98.7177 24.7663 95.8117 21.7301 95.8117 18.0434C95.8117 14.3566 98.7177 11.2771 102.274 11.2771C103.836 11.2771 105.484 11.9277 106.742 13.012C106.872 13.1855 107.089 13.2723 107.306 13.2723C107.479 13.2723 107.653 13.1422 107.783 13.012L108.954 11.7976C109.084 11.6675 109.171 11.4506 109.171 11.2337C109.171 11.0169 109.084 10.8434 108.91 10.6699C106.872 8.89156 104.833 8.11084 102.274 8.11084C96.8093 8.11084 92.3418 12.5783 92.3418 18.0867C92.3418 23.5518 96.7659 28.0193 102.274 28.0193C104.79 28.0626 107.176 27.0651 108.954 25.3301C109.127 25.1566 109.214 24.9398 109.171 24.7229C109.171 24.5494 109.084 24.3759 108.954 24.2458L107.739 22.9879Z" fill="#6F6C68"/>
<path d="M124.005 24.6796H116.979V9.06511C116.979 8.67475 116.632 8.32776 116.241 8.32776H114.463C114.029 8.32776 113.726 8.67475 113.726 9.06511V26.935C113.726 27.3687 114.073 27.6723 114.463 27.6723H124.005C124.439 27.6723 124.742 27.3253 124.742 26.935V25.4603C124.742 25.0266 124.439 24.6796 124.005 24.6796Z" fill="#6F6C68"/>
<path d="M139.88 11.3639C140.314 11.3639 140.618 11.0169 140.618 10.6265V9.10844C140.618 8.67471 140.271 8.37109 139.88 8.37109H129.167C128.733 8.37109 128.43 8.71808 128.43 9.10844V26.9783C128.43 27.4121 128.777 27.7157 129.167 27.7157H139.88C140.314 27.7157 140.618 27.3687 140.618 26.9783V25.5036C140.618 25.0699 140.271 24.7663 139.88 24.7663H131.639V19.388H138.536C138.969 19.388 139.273 19.041 139.273 18.6506V17.1325C139.273 16.7422 138.926 16.3952 138.536 16.3952H131.639V11.3639H139.88Z" fill="#6F6C68"/>
</g>
<defs>
<clipPath id="clip0_80_171">
<rect width="140.617" height="36" fill="white"/>
</clipPath>
</defs>
</svg>
