<svg width="164" height="36" viewBox="0 0 164 36" fill="none" xmlns="http://www.w3.org/2000/svg">
<path d="M68.292 12.4208V18.0558H70.6424C71.5799 18.0558 72.3098 17.808 72.8322 17.3125C73.3612 16.817 73.6257 16.1239 73.6257 15.2333C73.6257 14.3426 73.3645 13.6529 72.8422 13.1641C72.3199 12.6685 71.5866 12.4208 70.6424 12.4208H68.292ZM66.263 10.7533H70.6424C72.3165 10.7533 73.5855 11.135 74.4494 11.8984C75.3132 12.6551 75.7451 13.7667 75.7451 15.2333C75.7451 16.7132 75.3132 17.8315 74.4494 18.5882C73.5922 19.3449 72.3232 19.7232 70.6424 19.7232H68.292V25.75H66.263V10.7533ZM88.2808 16.8203C87.8857 16.5123 87.484 16.2879 87.0755 16.1473C86.667 16.0067 86.2183 15.9364 85.7295 15.9364C84.5777 15.9364 83.6971 16.298 83.0877 17.0212C82.4784 17.7444 82.1737 18.7891 82.1737 20.1551V25.75H80.3154V14.5H82.1737V16.6998C82.4817 15.9029 82.9538 15.2935 83.59 14.8717C84.2328 14.4431 84.9929 14.2288 85.8701 14.2288C86.3255 14.2288 86.7507 14.2857 87.1458 14.3996C87.5409 14.5134 87.9192 14.6908 88.2808 14.9319V16.8203ZM95.2619 15.7958C94.3244 15.7958 93.6145 16.1607 93.1324 16.8906C92.6502 17.6205 92.4092 18.702 92.4092 20.135C92.4092 21.5614 92.6502 22.6429 93.1324 23.3795C93.6145 24.1094 94.3244 24.4743 95.2619 24.4743C96.2061 24.4743 96.9192 24.1094 97.4014 23.3795C97.8835 22.6429 98.1246 21.5614 98.1246 20.135C98.1246 18.702 97.8835 17.6205 97.4014 16.8906C96.9192 16.1607 96.2061 15.7958 95.2619 15.7958ZM95.2619 14.2288C96.8221 14.2288 98.0141 14.7344 98.8377 15.7455C99.6681 16.7567 100.083 18.2199 100.083 20.135C100.083 22.0569 99.6715 23.5234 98.8478 24.5346C98.0241 25.5391 96.8288 26.0413 95.2619 26.0413C93.7016 26.0413 92.5096 25.5391 91.686 24.5346C90.8623 23.5234 90.4505 22.0569 90.4505 20.135C90.4505 18.2199 90.8623 16.7567 91.686 15.7455C92.5096 14.7344 93.7016 14.2288 95.2619 14.2288ZM107.637 11.3058V14.5H111.836V15.9364H107.637V22.0435C107.637 22.8739 107.794 23.4531 108.109 23.7813C108.424 24.1094 108.973 24.2734 109.756 24.2734H111.836V25.75H109.575C108.189 25.75 107.212 25.4721 106.642 24.9163C106.073 24.3605 105.789 23.4029 105.789 22.0435V15.9364H102.785V14.5H105.789V11.3058H107.637ZM120.052 15.7958C119.115 15.7958 118.405 16.1607 117.923 16.8906C117.44 17.6205 117.199 18.702 117.199 20.135C117.199 21.5614 117.44 22.6429 117.923 23.3795C118.405 24.1094 119.115 24.4743 120.052 24.4743C120.996 24.4743 121.709 24.1094 122.192 23.3795C122.674 22.6429 122.915 21.5614 122.915 20.135C122.915 18.702 122.674 17.6205 122.192 16.8906C121.709 16.1607 120.996 15.7958 120.052 15.7958ZM120.052 14.2288C121.612 14.2288 122.804 14.7344 123.628 15.7455C124.458 16.7567 124.873 18.2199 124.873 20.135C124.873 22.0569 124.462 23.5234 123.638 24.5346C122.814 25.5391 121.619 26.0413 120.052 26.0413C118.492 26.0413 117.3 25.5391 116.476 24.5346C115.652 23.5234 115.241 22.0569 115.241 20.135C115.241 18.2199 115.652 16.7567 116.476 15.7455C117.3 14.7344 118.492 14.2288 120.052 14.2288ZM136.917 25.1775C136.421 25.4654 135.909 25.6797 135.38 25.8203C134.858 25.9676 134.322 26.0413 133.773 26.0413C132.032 26.0413 130.669 25.519 129.685 24.4743C128.707 23.4297 128.218 21.9833 128.218 20.135C128.218 18.2868 128.707 16.8404 129.685 15.7958C130.669 14.7511 132.032 14.2288 133.773 14.2288C134.315 14.2288 134.844 14.2991 135.36 14.4397C135.876 14.5804 136.395 14.798 136.917 15.0926V17.0313C136.428 16.596 135.936 16.2813 135.44 16.0871C134.952 15.8929 134.396 15.7958 133.773 15.7958C132.615 15.7958 131.724 16.1708 131.101 16.9208C130.478 17.6708 130.167 18.7422 130.167 20.135C130.167 21.5212 130.478 22.5926 131.101 23.3493C131.731 24.0993 132.621 24.4743 133.773 24.4743C134.416 24.4743 134.992 24.3772 135.501 24.183C136.01 23.9821 136.482 23.6741 136.917 23.2589V25.1775ZM144.842 15.7958C143.905 15.7958 143.195 16.1607 142.713 16.8906C142.231 17.6205 141.99 18.702 141.99 20.135C141.99 21.5614 142.231 22.6429 142.713 23.3795C143.195 24.1094 143.905 24.4743 144.842 24.4743C145.786 24.4743 146.5 24.1094 146.982 23.3795C147.464 22.6429 147.705 21.5614 147.705 20.135C147.705 18.702 147.464 17.6205 146.982 16.8906C146.5 16.1607 145.786 15.7958 144.842 15.7958ZM144.842 14.2288C146.402 14.2288 147.594 14.7344 148.418 15.7455C149.248 16.7567 149.664 18.2199 149.664 20.135C149.664 22.0569 149.252 23.5234 148.428 24.5346C147.604 25.5391 146.409 26.0413 144.842 26.0413C143.282 26.0413 142.09 25.5391 141.266 24.5346C140.443 23.5234 140.031 22.0569 140.031 20.135C140.031 18.2199 140.443 16.7567 141.266 15.7455C142.09 14.7344 143.282 14.2288 144.842 14.2288ZM158.272 21.6819C158.272 22.5123 158.423 23.1384 158.724 23.5603C159.032 23.9821 159.484 24.1931 160.08 24.1931H162.24V25.75H159.899C158.794 25.75 157.937 25.3984 157.328 24.6953C156.725 23.9855 156.424 22.981 156.424 21.6819V11.5067H153.461V10.0603H158.272V21.6819Z" fill="#6F6C68"/>
<path d="M56.8926 3.86328V32.1709L53.0635 36H3.8584L1.92969 34.0713H54.9639V1.93457L56.8926 3.86328ZM54.958 1.92871H1.92773V34.0684L0 32.1406V3.84473L3.8457 0H53.0293L54.958 1.92871Z" fill="#6F6C68"/>
<path d="M6.06564 25.9375V11.1261H8.54449V23.6129H15.0862V25.9375H6.06564ZM22.5681 25.9375V23.4895H16.0058V21.1752L20.7475 11.1261H23.5761L18.8344 21.1752H22.5681V17.3181H25.0778V21.1752H26.4664V23.4895H25.0778V25.9375H22.5681ZM33.8494 26.2461C32.8003 26.2461 31.8746 26.0232 31.0723 25.5775C30.27 25.1249 29.6426 24.4975 29.19 23.6952C28.7443 22.8929 28.5214 21.9672 28.5214 20.9181V16.1455C28.5214 15.0964 28.7443 14.1706 29.19 13.3684C29.6426 12.5661 30.27 11.9421 31.0723 11.4964C31.8746 11.0438 32.8003 10.8175 33.8494 10.8175C34.8986 10.8175 35.8209 11.0438 36.6163 11.4964C37.4186 11.9421 38.046 12.5661 38.4986 13.3684C38.9512 14.1706 39.1774 15.0964 39.1774 16.1455V20.9181C39.1774 21.9672 38.9512 22.8929 38.4986 23.6952C38.046 24.4975 37.4186 25.1249 36.6163 25.5775C35.8209 26.0232 34.8986 26.2461 33.8494 26.2461ZM33.8494 23.8906C34.3706 23.8906 34.8437 23.7672 35.2689 23.5204C35.694 23.2666 36.03 22.9306 36.2769 22.5124C36.5237 22.0872 36.6472 21.6141 36.6472 21.0929V15.9604C36.6472 15.4324 36.5237 14.9592 36.2769 14.5409C36.03 14.1158 35.694 13.7798 35.2689 13.5329C34.8437 13.2792 34.3706 13.1524 33.8494 13.1524C33.3283 13.1524 32.8552 13.2792 32.43 13.5329C32.0049 13.7798 31.6689 14.1158 31.422 14.5409C31.1752 14.9592 31.0517 15.4324 31.0517 15.9604V21.0929C31.0517 21.6141 31.1752 22.0872 31.422 22.5124C31.6689 22.9306 32.0049 23.2666 32.43 23.5204C32.8552 23.7672 33.3283 23.8906 33.8494 23.8906ZM41.2388 25.9169V23.7569L47.5748 18.1101C48.0685 17.6712 48.4113 17.2564 48.6033 16.8655C48.7953 16.4746 48.8913 16.0975 48.8913 15.7341C48.8913 15.2404 48.785 14.8015 48.5725 14.4175C48.3599 14.0266 48.065 13.7181 47.6879 13.4918C47.3176 13.2655 46.889 13.1524 46.4022 13.1524C45.8879 13.1524 45.4319 13.2724 45.0342 13.5124C44.6433 13.7455 44.3382 14.0575 44.1188 14.4484C43.8993 14.8392 43.7965 15.2609 43.8102 15.7135H41.2593C41.2593 14.7261 41.4788 13.8655 41.9176 13.1318C42.3633 12.3981 42.9736 11.8289 43.7485 11.4244C44.5302 11.0198 45.4319 10.8175 46.4536 10.8175C47.3999 10.8175 48.2502 11.0301 49.0045 11.4552C49.7588 11.8735 50.3519 12.4564 50.7839 13.2038C51.2159 13.9444 51.4319 14.7981 51.4319 15.7649C51.4319 16.4712 51.3359 17.0644 51.1439 17.5444C50.9519 18.0244 50.6639 18.4666 50.2799 18.8712C49.9028 19.2758 49.433 19.7249 48.8708 20.2186L44.3759 24.1992L44.1496 23.5821H51.4319V25.9169H41.2388Z" fill="#6F6C68"/>
</svg>
