<svg width="83" height="36" viewBox="0 0 83 36" fill="none" xmlns="http://www.w3.org/2000/svg">
<g clip-path="url(#clip0_76_38)">
<path d="M12.9244 16.8824L22.6958 0.515259H25.0409V34.7153H21.3278V9.9447L12.7778 24.0156L4.2278 9.9447V34.7153H0.514648V0.515259H2.8598L12.9244 16.8824Z" fill="#6F6C68"/>
<path d="M34.1204 34.7153H30.4072V0.515259H47.9469L53.0769 5.64527V15.319L47.9469 20.449H34.1204V34.7153ZM34.1204 4.22841V16.7358H46.2369L49.3638 13.609V7.35527L46.2369 4.22841H34.1204Z" fill="#6F6C68"/>
<path d="M60.4837 34.7153H56.7705V0.515259H74.3102L79.4402 5.64527V15.319L74.3102 20.449H60.4837V34.7153ZM60.4837 4.22841V16.7358H72.6002L75.7271 13.609V7.35527L72.6002 4.22841H60.4837Z" fill="#6F6C68"/>
<path d="M32.0528 32.1439V34.7153H23.0527V32.1439H32.0528Z" fill="#6F6C68"/>
<path d="M71.9106 0.514773V4.11579H46.1963V0.514771L71.9106 0.514773Z" fill="#6F6C68"/>
<path d="M3.14745 0L3.29814 0.246094L12.9184 15.8906L22.2549 0.251116L22.4056 0H25.5571V31.6306H29.8938V0H74.5223L79.9539 5.43163V15.5315L74.5223 20.9632H60.9971V35.2291H56.2561V4.63058H52.7906L53.5916 5.43163V15.5315L48.16 20.9632H34.635V35.2291H20.8135V11.7824L12.7778 25.0061L4.74205 11.7773V35.2291H0.000976562V0H3.14745ZM72.4253 3.71402H72.812L76.0916 6.99107L76.2397 7.14173V13.8214L76.0916 13.9721L72.812 17.2492H59.97V4.63058H57.2855V34.2021H59.97V19.9336H74.0977L78.9269 15.1046V5.85854L74.0977 1.02958H72.4253V3.71402ZM30.9234 31.6306H32.5681V34.2021H33.6077V19.9336H47.7357L52.5646 15.1046V5.85854L51.3367 4.63058H47.3664L49.8803 7.14173V13.8214L46.45 17.2492H33.6077V3.71402H45.684V1.02958H30.9234V31.6306ZM30.9234 34.2021H31.5411V32.6577H30.9234V34.2021ZM25.5571 34.2021H29.8938V32.6577H25.5571V34.2021ZM23.5682 34.2021H24.5275V32.6577H23.5682V34.2021ZM1.03055 34.2021H3.71499V8.10854L12.7778 23.0223L21.8431 8.10854V34.2021H22.5411V31.6306H24.5275V1.02958H22.9881L13.3679 17.1462L12.9309 17.8744L2.57241 1.02958H1.03055V34.2021ZM60.9971 16.2221H72.3877L75.2127 13.397V7.56864L72.3877 4.74359H60.9971V16.2221ZM34.635 16.2221H46.0254L48.8507 13.397V7.56864L46.0254 4.74359H34.635V16.2221ZM57.2855 3.601H71.3982V1.02958H57.2855V3.601ZM51.761 3.601H56.2561V1.02958H49.1896L51.761 3.601ZM46.711 3.601H50.3071L47.7357 1.02958H46.711V3.601Z" fill="#6F6C68"/>
</g>
<defs>
<clipPath id="clip0_76_38">
<rect width="82.2857" height="36" fill="white"/>
</clipPath>
</defs>
</svg>
