<svg width="243" height="36" viewBox="0 0 243 36" fill="none" xmlns="http://www.w3.org/2000/svg">
<g clip-path="url(#clip0_76_58)">
<mask id="mask0_76_58" style="mask-type:luminance" maskUnits="userSpaceOnUse" x="0" y="0" width="243" height="36">
<path d="M242.25 0H0V36H242.25V0Z" fill="white"/>
</mask>
<g mask="url(#mask0_76_58)">
<path d="M40.6983 28.3838L34.0533 35.5088C33.9096 35.6635 33.7355 35.7871 33.542 35.8716C33.3484 35.9561 33.1395 35.9998 32.9283 36H1.42831C1.27808 36 1.13112 35.9561 1.00545 35.8737C0.879772 35.7914 0.780832 35.6742 0.720738 35.5365C0.660644 35.3988 0.642007 35.2466 0.667109 35.0985C0.692212 34.9504 0.759959 34.8127 0.862064 34.7025L7.49956 27.5775C7.6433 27.4228 7.81734 27.2993 8.01091 27.2147C8.20445 27.1303 8.41336 27.0865 8.62456 27.0863H40.1246C40.2761 27.0832 40.4253 27.1249 40.5532 27.2064C40.6811 27.2878 40.7823 27.4053 40.8434 27.544C40.9049 27.6827 40.9237 27.8364 40.8978 27.9859C40.8719 28.1353 40.8026 28.2738 40.6983 28.3838ZM34.0533 14.0325C33.909 13.8785 33.7349 13.7555 33.5414 13.671C33.348 13.5865 33.1394 13.5424 32.9283 13.5413H1.42831C1.27808 13.5414 1.13112 13.5853 1.00545 13.6676C0.879772 13.7499 0.780832 13.8671 0.720738 14.0048C0.660644 14.1425 0.642007 14.2947 0.667109 14.4428C0.692212 14.591 0.759959 14.7286 0.862064 14.8388L7.49956 21.9676C7.64383 22.1216 7.81801 22.2446 8.01144 22.3291C8.20486 22.4135 8.41351 22.4577 8.62456 22.4588H40.1246C40.2746 22.458 40.4208 22.4135 40.5461 22.331C40.6713 22.2484 40.7696 22.1311 40.8292 21.9936C40.8888 21.856 40.9072 21.7041 40.8817 21.5563C40.8566 21.4085 40.7891 21.2713 40.6871 21.1613L34.0533 14.0325ZM1.42831 8.91377H32.9283C33.1395 8.91359 33.3484 8.86982 33.542 8.7853C33.7355 8.70081 33.9096 8.57729 34.0533 8.42252L40.6983 1.29754C40.8026 1.18749 40.8719 1.04903 40.8978 0.8996C40.9237 0.750166 40.9049 0.596427 40.8434 0.45773C40.7823 0.319033 40.6811 0.201574 40.5532 0.120134C40.4253 0.0386939 40.2761 -0.00308942 40.1246 4.18806e-05H8.62456C8.41336 0.000264196 8.20445 0.0439987 8.01091 0.128518C7.81734 0.213038 7.6433 0.336529 7.49956 0.491292L0.862064 7.61627C0.759959 7.72649 0.692212 7.86411 0.667109 8.01224C0.642007 8.16036 0.660644 8.31257 0.720738 8.45027C0.780832 8.58797 0.879772 8.70516 1.00545 8.78747C1.13112 8.86982 1.27808 8.9137 1.42831 8.91377Z" fill="#6F6C68"/>
<path d="M79.1015 15.2251H62.249V9.67508H83.4815V4.12508H62.1928C61.4653 4.12114 60.7445 4.26049 60.071 4.53518C59.3975 4.80991 58.7844 5.21457 58.2676 5.72611C57.7505 6.23764 57.3391 6.84604 57.0571 7.51651C56.7751 8.18701 56.6278 8.90648 56.624 9.63383V15.2588C56.627 15.9868 56.7733 16.7071 57.0549 17.3784C57.3365 18.0498 57.7475 18.6591 58.2646 19.1714C58.7821 19.6838 59.3953 20.0891 60.0691 20.3643C60.743 20.6394 61.4649 20.7791 62.1928 20.7751H79.0678V26.3251H57.0253V31.8751H79.1015C79.829 31.8791 80.5498 31.7397 81.2233 31.465C81.8968 31.1903 82.5099 30.7856 83.0266 30.2741C83.5438 29.7625 83.9551 29.1542 84.2371 28.4837C84.5191 27.8132 84.6665 27.0937 84.6703 26.3663V20.7413C84.6673 20.0133 84.521 19.2931 84.2394 18.6217C83.9578 17.9504 83.5468 17.3411 83.0296 16.8288C82.5121 16.3164 81.899 15.9111 81.2251 15.6359C80.5513 15.3608 79.8294 15.2211 79.1015 15.2251Z" fill="#6F6C68"/>
<path d="M111.749 4.12506H94.8328C94.1041 4.11914 93.3815 4.25702 92.7061 4.53085C92.0311 4.80467 91.4165 5.209 90.8979 5.72076C90.3789 6.23249 89.9664 6.84152 89.6836 7.513C89.4005 8.18447 89.2528 8.90519 89.249 9.63381V26.3663C89.2528 27.0949 89.4005 27.8156 89.6836 28.4871C89.9664 29.1586 90.3789 29.7676 90.8979 30.2794C91.4165 30.7911 92.0311 31.1954 92.7061 31.4693C93.3815 31.7431 94.1041 31.881 94.8328 31.8751H111.749C112.477 31.879 113.197 31.7396 113.871 31.465C114.544 31.1902 115.157 30.7856 115.674 30.274C116.191 29.7625 116.603 29.1541 116.885 28.4836C117.167 27.8131 117.314 27.0937 117.318 26.3663V9.63381C117.314 8.90646 117.167 8.18699 116.885 7.51649C116.603 6.84602 116.191 6.23762 115.674 5.72609C115.157 5.21455 114.544 4.80989 113.871 4.53516C113.197 4.26047 112.477 4.12112 111.749 4.12506ZM111.708 26.3251H94.874V9.67506H111.7L111.708 26.3251Z" fill="#6F6C68"/>
<path d="M170.999 4.12517H154.499C153.772 4.12123 153.051 4.26058 152.378 4.53527C151.704 4.80999 151.091 5.21465 150.574 5.72619C150.057 6.23773 149.646 6.84613 149.364 7.51659C149.082 8.18709 148.934 8.90657 148.931 9.63392V31.8752H154.556V22.7589H170.981V31.8752H176.606V9.63392C176.602 8.90338 176.453 8.18083 176.169 7.50785C175.885 6.83492 175.47 6.22487 174.949 5.7128C174.428 5.20078 173.811 4.7969 173.133 4.52443C172.455 4.25195 171.73 4.11628 170.999 4.12517ZM170.958 17.2089H154.533V9.67517H170.958V17.2089Z" fill="#6F6C68"/>
<path d="M236.68 4.12508H220.18C219.453 4.12114 218.732 4.26049 218.058 4.53518C217.385 4.80991 216.772 5.21457 216.255 5.72611C215.738 6.23764 215.326 6.84604 215.044 7.51651C214.762 8.18701 214.615 8.90648 214.611 9.63383V31.8751H220.236V22.7588H236.624V31.8751H242.249V9.63383C242.245 8.90648 242.098 8.18701 241.816 7.51651C241.534 6.84604 241.122 6.23764 240.605 5.72611C240.088 5.21457 239.475 4.80991 238.802 4.53518C238.128 4.26049 237.408 4.12114 236.68 4.12508ZM236.624 17.2088H220.199V9.67508H236.624V17.2088Z" fill="#6F6C68"/>
<path d="M203.999 26.325H201.749L193.705 6.45005C193.43 5.76436 192.955 5.1767 192.343 4.76247C191.731 4.34821 191.009 4.12625 190.27 4.12505H185.279C184.794 4.12257 184.313 4.21569 183.864 4.39902C183.415 4.5824 183.006 4.8524 182.661 5.19365C182.317 5.53494 182.043 5.94072 181.855 6.38795C181.667 6.83514 181.569 7.31499 181.566 7.80005V31.875H187.191V9.67505H189.441L197.481 29.55C197.762 30.2344 198.24 30.8197 198.854 31.2311C199.469 31.6426 200.192 31.8615 200.931 31.86H205.923C206.408 31.8625 206.889 31.7694 207.338 31.5861C207.787 31.4027 208.195 31.1327 208.54 30.7914C208.885 30.4502 209.159 30.0444 209.347 29.5972C209.535 29.15 209.633 28.6702 209.635 28.1851V4.12505H203.999V26.325Z" fill="#6F6C68"/>
<path d="M127.911 4.125H122.286V26.3662C122.29 27.0952 122.438 27.8162 122.721 28.4879C123.004 29.1597 123.417 29.7688 123.936 30.2806C124.455 30.7924 125.071 31.1967 125.746 31.4703C126.422 31.7439 127.145 31.8814 127.874 31.875H144.749V26.325H127.911V4.125Z" fill="#6F6C68"/>
</g>
</g>
<defs>
<clipPath id="clip0_76_58">
<rect width="242.25" height="36" fill="white"/>
</clipPath>
</defs>
</svg>
