<svg width="225" height="30" viewBox="0 0 225 30" fill="none" xmlns="http://www.w3.org/2000/svg">
<path d="M48.7271 24.0469C47.4824 24.0469 46.3266 23.9186 45.2669 23.6658C44.2071 23.4093 43.2825 23.0471 42.4966 22.568C41.7107 22.0926 41.0954 21.5003 40.658 20.7948C40.2206 20.0855 40.0001 19.2707 40.0001 18.3426C40.0001 18.2483 40.0001 18.1577 40.0001 18.0634C40.0001 17.9691 40.0108 17.8899 40.0321 17.8182L44.7904 17.8182C44.7904 17.8635 44.7904 17.9162 44.7904 17.9766C44.7904 18.0333 44.7904 18.0861 44.7904 18.135C44.8117 18.6934 45.0073 19.1462 45.3807 19.4933C45.7505 19.8403 46.2449 20.0893 46.8565 20.2402C47.4682 20.3912 48.1154 20.4666 48.7911 20.4666C49.4241 20.4666 50.0429 20.4213 50.6439 20.327C51.2449 20.2327 51.7499 20.0478 52.1517 19.7687C52.5571 19.4895 52.7598 19.1198 52.7598 18.6557C52.7598 18.0747 52.518 17.6485 52.0379 17.3693C51.5578 17.0901 50.8964 16.8713 50.0536 16.7091C49.2107 16.5468 48.2648 16.362 47.2157 16.1506C46.3409 15.9884 45.5052 15.781 44.705 15.5245C43.9084 15.2678 43.1901 14.9397 42.5571 14.5322C41.924 14.1247 41.4191 13.6041 41.0492 12.9665C40.6758 12.329 40.4909 11.533 40.4909 10.5822C40.4909 9.5863 40.6971 8.72602 41.1132 8.00545C41.5293 7.28488 42.1196 6.69631 42.8842 6.23238C43.6488 5.76833 44.5521 5.425 45.5905 5.2062C46.6289 4.98739 47.7491 4.87413 48.9511 4.87413C50.0678 4.87413 51.1169 4.9836 52.102 5.2062C53.0871 5.425 53.9405 5.75314 54.6589 6.17948C55.3809 6.60962 55.9534 7.1491 56.38 7.79804C56.8068 8.44685 57.0202 9.17881 57.0202 9.98986C57.0202 10.1294 57.0202 10.2578 57.0202 10.3709C57.0202 10.488 57.0096 10.5784 56.9882 10.6502L52.2335 10.6502L52.2335 10.4049C52.2335 9.96354 52.0842 9.60515 51.789 9.32599C51.4938 9.04669 51.0884 8.83169 50.5763 8.68084C50.0607 8.52987 49.4775 8.45445 48.8195 8.45445C48.4924 8.45445 48.119 8.4771 47.7029 8.5224C47.2868 8.56758 46.8885 8.6506 46.5045 8.76753C46.1204 8.88458 45.8145 9.04669 45.587 9.25423C45.3594 9.46177 45.242 9.72955 45.242 10.054C45.242 10.4728 45.4483 10.801 45.8643 11.0463C46.2804 11.2915 46.8316 11.4801 47.5215 11.6197C48.2115 11.7593 48.9583 11.9102 49.7691 12.0725C50.6866 12.2799 51.6076 12.495 52.5251 12.7175C53.4427 12.9364 54.2855 13.2344 55.05 13.6041C55.8147 13.9739 56.4157 14.5095 56.8531 15.2038C57.2905 15.8979 57.5074 16.8298 57.5074 17.988C57.5074 19.1009 57.294 20.0478 56.8672 20.825C56.4406 21.6022 55.8359 22.2284 55.0465 22.7038C54.2606 23.1792 53.3289 23.5225 52.2584 23.73C51.1987 23.9412 50.018 24.0469 48.7271 24.0469Z" fill="white"/>
<path d="M67.3267 24.0469C65.2713 24.0469 63.6816 23.4885 62.5543 22.3756C61.427 21.2626 60.8651 19.5121 60.8651 17.1202L60.8651 5.32309L65.6553 5.32309L65.6553 16.2827C65.6553 16.958 65.73 17.5201 65.8865 17.9691C66.0393 18.4218 66.2706 18.7878 66.5763 19.0669C66.8823 19.3461 67.2485 19.5498 67.6753 19.6743C68.102 19.7988 68.5892 19.8667 69.1333 19.8667C69.9192 19.8667 70.6376 19.6819 71.2813 19.3084C71.9249 18.9387 72.4442 18.4218 72.8389 17.7615C73.2337 17.1013 73.4292 16.3507 73.4292 15.5168L73.4292 5.31929L78.2515 5.31929L78.2515 23.6243L74.3147 23.6243L73.9555 20.8401L73.7244 20.8401C73.1981 21.5607 72.6078 22.1568 71.9533 22.6321C71.2955 23.1075 70.57 23.4621 69.7735 23.6922C68.9733 23.9299 68.1589 24.0469 67.3267 24.0469Z" fill="white"/>
<path d="M82.5791 29.9962L82.5791 5.32298L86.4839 5.32298L86.9107 7.96759L87.1417 7.96759C87.821 6.85472 88.6781 6.0662 89.7165 5.60214C90.7549 5.13809 91.8858 4.90802 93.1126 4.90802C94.7094 4.90802 96.0928 5.24376 97.2628 5.91902C98.4327 6.59061 99.3361 7.63565 99.9691 9.05034C100.602 10.4652 100.919 12.2761 100.919 14.4793C100.919 16.6372 100.595 18.4254 99.9514 19.8402C99.3077 21.255 98.4151 22.3113 97.2771 23.0055C96.139 23.6997 94.8054 24.0505 93.2762 24.0505C92.5117 24.0505 91.772 23.9562 91.0607 23.7713C90.3495 23.5865 89.6987 23.2997 89.1084 22.9187C88.518 22.5377 88.013 22.0661 87.6005 21.5077L87.4049 21.5077L87.4049 30L82.5791 30L82.5791 29.9962ZM91.7328 19.9043C92.718 19.9043 93.5253 19.7119 94.1617 19.3309C94.7948 18.9499 95.2642 18.3689 95.5737 17.5917C95.8794 16.8145 96.0323 15.894 96.0323 14.8264L96.0323 14.1321C96.0323 13.0193 95.8794 12.0798 95.5737 11.314C95.2677 10.5482 94.7984 9.97465 94.1617 9.58994C93.5253 9.20878 92.7072 9.01642 91.7009 9.01642C90.762 9.01642 89.9654 9.22396 89.3217 9.64271C88.678 10.0615 88.1838 10.6575 87.8459 11.4346C87.5046 12.2119 87.3373 13.1362 87.3373 14.2001L87.3373 14.6868C87.3373 15.4752 87.4369 16.1996 87.6325 16.8598C87.8282 17.52 88.1091 18.0783 88.4682 18.5311C88.8275 18.9838 89.2755 19.3271 89.8125 19.5573C90.3495 19.7912 90.9896 19.9043 91.7328 19.9043Z" fill="white"/>
<path d="M113.479 24.0469C111.402 24.0469 109.634 23.7035 108.18 23.0207C106.725 22.3378 105.616 21.2853 104.851 19.8705C104.087 18.4558 103.703 16.6561 103.703 14.4756C103.703 12.295 104.083 10.4954 104.851 9.0807C105.616 7.66588 106.715 6.61718 108.148 5.93052C109.581 5.24767 111.313 4.90434 113.347 4.90434C115.338 4.90434 117.028 5.24007 118.415 5.91546C119.802 6.58693 120.854 7.61311 121.562 8.99388C122.273 10.3748 122.629 12.1063 122.629 14.1964L122.629 15.6225L108.656 15.6225C108.699 16.6902 108.909 17.5768 109.279 18.286C109.648 18.9953 110.193 19.5121 110.904 19.8366C111.615 20.161 112.493 20.3232 113.546 20.3232C114.069 20.3232 114.574 20.2591 115.054 20.1308C115.534 20.0026 115.971 19.8064 116.366 19.5385C116.761 19.2707 117.088 18.9424 117.351 18.5463C117.614 18.154 117.757 17.7012 117.778 17.1882L122.6 17.1882C122.6 18.2558 122.376 19.2179 121.928 20.078C121.48 20.9382 120.861 21.655 120.075 22.236C119.289 22.817 118.336 23.2622 117.22 23.5753C116.103 23.8884 114.858 24.0469 113.479 24.0469ZM108.724 12.4573L117.579 12.4573C117.579 11.8083 117.476 11.2386 117.266 10.752C117.056 10.2653 116.768 9.85783 116.398 9.53336C116.025 9.20901 115.587 8.97123 115.086 8.82039C114.585 8.66941 114.026 8.59399 113.414 8.59399C112.476 8.59399 111.672 8.73737 111.003 9.02793C110.335 9.31835 109.816 9.75216 109.446 10.3333C109.072 10.9179 108.831 11.6234 108.724 12.4573Z" fill="white"/>
<path d="M126.174 23.6281L126.174 5.3231L130.111 5.3231L130.506 8.31484L130.737 8.31484C130.954 7.68855 131.274 7.10756 131.686 6.57568C132.103 6.04367 132.611 5.62492 133.212 5.3231C133.813 5.02128 134.496 4.87031 135.264 4.87031C135.659 4.87031 136.018 4.90435 136.345 4.97598C136.672 5.04393 136.957 5.12695 137.199 5.22123L137.199 9.67675L135.296 9.67675C134.553 9.67675 133.913 9.79748 133.376 10.0427C132.839 10.2879 132.391 10.635 132.031 11.0878C131.672 11.5404 131.409 12.0686 131.246 12.6723C131.082 13.2759 131 13.9588 131 14.7245L131 23.6318L126.174 23.6318L126.174 23.6281Z" fill="white"/>
<path d="M146.018 24.0469C144.817 24.0469 143.831 23.8507 143.067 23.4546C142.302 23.0622 141.737 22.4737 141.378 21.6965C141.018 20.9193 140.837 19.9497 140.837 18.7915L140.837 9.15238L138.181 9.15238L138.181 5.32315L141.033 5.32315L141.95 -0.000112698L145.656 -0.00011286L145.656 5.32315L149.525 5.32315L149.525 9.15238L145.656 9.15238L145.656 18.0596C145.656 18.7538 145.791 19.282 146.065 19.6441C146.339 20.0026 146.858 20.1836 147.622 20.1836L149.525 20.1836L149.525 23.4885C149.241 23.5828 148.892 23.6696 148.476 23.7488C148.06 23.828 147.633 23.8997 147.196 23.9563C146.762 24.0167 146.371 24.0469 146.018 24.0469Z" fill="white"/>
<path d="M161.765 24.0469C159.688 24.0469 157.921 23.7035 156.466 23.0207C155.012 22.3378 153.902 21.2853 153.137 19.8705C152.373 18.4558 151.989 16.6561 151.989 14.4756C151.989 12.295 152.373 10.4954 153.137 9.0807C153.902 7.66588 155.001 6.61718 156.434 5.93052C157.867 5.24767 159.599 4.90434 161.633 4.90434C163.621 4.90434 165.314 5.24007 166.7 5.91546C168.088 6.58693 169.14 7.61311 169.852 8.99388C170.564 10.3748 170.919 12.1063 170.919 14.1964L170.919 15.6225L156.946 15.6225C156.989 16.6902 157.199 17.5768 157.569 18.286C157.938 18.9953 158.483 19.5121 159.194 19.8366C159.905 20.161 160.783 20.3232 161.836 20.3232C162.362 20.3232 162.864 20.2591 163.344 20.1308C163.824 20.0026 164.261 19.8064 164.656 19.5385C165.051 19.2707 165.378 18.9424 165.641 18.5463C165.904 18.154 166.047 17.7012 166.068 17.1882L170.89 17.1882C170.89 18.2558 170.666 19.2179 170.218 20.078C169.77 20.9382 169.152 21.655 168.365 22.236C167.579 22.817 166.626 23.2622 165.513 23.5753C164.389 23.8884 163.141 24.0469 161.765 24.0469ZM157.007 12.4573L165.865 12.4573C165.865 11.8083 165.762 11.2386 165.552 10.752C165.346 10.2653 165.054 9.85783 164.684 9.53336C164.311 9.20901 163.874 8.97123 163.372 8.82039C162.867 8.66941 162.313 8.59399 161.701 8.59399C160.762 8.59399 159.958 8.73737 159.29 9.02793C158.621 9.31835 158.102 9.75216 157.732 10.3333C157.359 10.9179 157.117 11.6234 157.007 12.4573Z" fill="white"/>
<path d="M179.906 24.0469C179.141 24.0469 178.376 23.9639 177.608 23.8016C176.843 23.6394 176.16 23.3716 175.56 23.0018C174.959 22.6321 174.471 22.1039 174.102 21.4173C173.728 20.7345 173.543 19.8592 173.543 18.7915C173.543 17.4221 173.849 16.3167 174.461 15.4678C175.073 14.6227 175.958 13.9851 177.117 13.5551C178.276 13.125 179.649 12.842 181.236 12.7025C182.821 12.5629 184.564 12.4949 186.467 12.4949L186.467 11.416C186.467 10.7897 186.342 10.2728 186.09 9.86916C185.837 9.4618 185.447 9.14479 184.909 8.91093C184.372 8.68074 183.658 8.56381 182.762 8.56381C181.975 8.56381 181.303 8.65062 180.745 8.82412C180.186 8.99774 179.759 9.22401 179.465 9.50318C179.169 9.78234 179.02 10.1068 179.02 10.4766L179.02 10.8953L174.297 10.8953C174.275 10.7558 174.258 10.6388 174.248 10.5482C174.236 10.4539 174.23 10.3408 174.23 10.2012C174.23 9.13353 174.567 8.20163 175.246 7.40184C175.926 6.60205 176.915 5.98715 178.216 5.55701C179.518 5.127 181.075 4.91187 182.889 4.91187C184.703 4.91187 186.228 5.11941 187.465 5.53816C188.7 5.95691 189.646 6.60585 190.303 7.48865C190.958 8.37145 191.289 9.49571 191.289 10.8652L191.289 18.9047C191.289 19.3235 191.392 19.6404 191.602 19.863C191.808 20.0818 192.068 20.195 192.374 20.195L193.749 20.195L193.749 23.4659C193.508 23.5828 193.127 23.7036 192.602 23.8318C192.074 23.9601 191.463 24.0242 190.762 24.0242C189.952 24.0242 189.287 23.9148 188.76 23.6922C188.234 23.4734 187.826 23.1716 187.53 22.7868C187.235 22.402 187.022 21.9568 186.89 21.4475L186.627 21.4475C186.168 21.9568 185.602 22.4171 184.937 22.8208C184.268 23.2282 183.515 23.5338 182.672 23.7413C181.832 23.9412 180.908 24.0469 179.906 24.0469ZM181.346 20.2893C181.979 20.2893 182.597 20.2025 183.199 20.029C183.799 19.8554 184.34 19.6102 184.823 19.2971C185.304 18.9839 185.698 18.5878 186.004 18.1124C186.31 17.6371 186.463 17.1203 186.463 16.5657L186.463 15.5584C184.756 15.5584 183.301 15.6451 182.099 15.8187C180.898 15.9922 179.973 16.2828 179.329 16.6901C178.686 17.0976 178.362 17.6597 178.362 18.3765C178.362 18.8406 178.494 19.2103 178.757 19.4895C179.02 19.7687 179.379 19.9724 179.838 20.0969C180.296 20.2251 180.802 20.2893 181.346 20.2893Z" fill="white"/>
<path d="M196.009 23.6279L196.009 5.32291L199.945 5.32291L200.34 8.07319L200.571 8.07319C201.03 7.35262 201.581 6.75657 202.228 6.28126C202.872 5.80581 203.568 5.45882 204.311 5.23622C205.055 5.01742 205.82 4.90416 206.61 4.90416C207.943 4.90416 209.07 5.1532 209.987 5.65117C210.905 6.14914 211.606 6.95652 212.086 8.06939L212.317 8.06939C212.798 7.34882 213.363 6.75278 214.006 6.27746C214.65 5.80202 215.361 5.45502 216.14 5.23242C216.915 5.01362 217.709 4.90049 218.519 4.90049C219.81 4.90049 220.908 5.13435 221.816 5.5946C222.722 6.05866 223.426 6.80188 223.932 7.82047C224.433 8.84285 224.686 10.1406 224.686 11.7177L224.686 23.6204L219.831 23.6204L219.831 12.5891C219.831 11.9403 219.76 11.3818 219.618 10.9179C219.476 10.4538 219.272 10.084 219.01 9.80488C218.747 9.52571 218.413 9.32956 218.011 9.21263C217.605 9.09557 217.175 9.039 216.716 9.039C215.995 9.039 215.332 9.2201 214.732 9.57848C214.131 9.93687 213.651 10.45 213.288 11.1102C212.929 11.7704 212.747 12.5212 212.747 13.3549L212.747 23.6204L207.957 23.6204L207.957 12.5891C207.957 11.9403 207.879 11.3818 207.726 10.9177C207.573 10.4538 207.359 10.084 207.086 9.80488C206.812 9.52571 206.484 9.32956 206.1 9.21263C205.717 9.09557 205.276 9.039 204.77 9.039C204.048 9.039 203.387 9.2201 202.787 9.57848C202.185 9.93687 201.709 10.45 201.36 11.1102C201.012 11.7704 200.834 12.5212 200.834 13.3549L200.834 23.6204L196.009 23.6204L196.009 23.6279Z" fill="white"/>
<path d="M25.9185 6.14245H32.8573V8.79821C32.8573 12.4001 29.9201 15.3113 26.286 15.3113H25.9185V6.14245ZM16.0435 2.28516H25.9185V27.3553H24.7435C17.5851 27.3553 16.1533 22.4071 16.1533 18.0039L16.0435 2.28516ZM0 7.96183C0 12.437 3.23028 14.0747 6.82806 14.6206H0V27.4281H6.57128C13.1798 27.4281 13.9501 24.517 13.9501 21.7515C13.9501 18.3672 11.6009 16.0029 7.96592 15.0927H13.9501V2.28516H7.37885C0.771285 2.28516 0 5.19634 0 7.96183Z" fill="white"/>
</svg>
