<svg width="106" height="36" viewBox="0 0 106 36" fill="none" xmlns="http://www.w3.org/2000/svg">
<g clip-path="url(#clip0_80_202)">
<path d="M77.7627 34.9636C77.81 35.2492 77.7717 35.4586 77.648 35.592C77.5242 35.7157 77.363 35.8062 77.1627 35.8633C76.9625 35.9109 76.7487 35.9347 76.52 35.9347C76.301 35.9252 76.1157 35.9252 75.9627 35.9347C75.782 35.9442 75.5682 35.9585 75.3207 35.9776C75.0732 35.9871 74.8301 35.9918 74.5921 35.9918C74.3636 35.9918 74.1541 35.9728 73.9637 35.9347C73.7732 35.8966 73.6448 35.83 73.5781 35.7348C73.5305 35.6681 73.4972 35.5158 73.4781 35.2777C73.4686 35.0398 73.4639 34.7494 73.4639 34.4066C73.4639 34.0543 73.4686 33.664 73.4781 33.2356C73.4972 32.8071 73.5162 32.374 73.5353 31.936C73.5543 31.4885 73.5686 31.0553 73.5781 30.6364C73.5971 30.2175 73.6067 29.8366 73.6067 29.4939C73.6162 28.9893 73.6209 28.4894 73.6209 27.9943C73.6209 27.4993 73.64 26.9995 73.6781 26.4949C73.6781 26.4282 73.6781 26.3425 73.6781 26.2378C73.6781 26.1235 73.6876 26.014 73.7066 25.9093C73.7352 25.8046 73.7828 25.7141 73.8494 25.638C73.9161 25.5618 74.0208 25.5237 74.1636 25.5237C74.4397 25.5237 74.6444 25.5856 74.7777 25.7094C74.9205 25.8331 74.9729 26.0997 74.9348 26.5091C74.9158 26.7091 74.8967 26.8756 74.8777 27.009C74.8682 27.1423 74.8586 27.2613 74.8491 27.366C74.8491 27.4612 74.8444 27.5516 74.8349 27.6373C74.8253 27.723 74.8205 27.8278 74.8205 27.9515C74.8015 28.837 74.792 29.7176 74.792 30.5935C74.792 31.4695 74.7682 32.3501 74.7206 33.2356C74.7015 33.7116 74.7872 34.0401 74.9777 34.221C75.1677 34.3924 75.4872 34.459 75.9342 34.4209C76.0775 34.4113 76.2537 34.3924 76.463 34.3638C76.6722 34.3352 76.8725 34.3304 77.063 34.3495C77.2535 34.3685 77.4147 34.4209 77.5482 34.5066C77.6817 34.5922 77.753 34.7446 77.7627 34.9636Z" fill="#6F6C68"/>
<path d="M71.5008 28.9941C71.5389 29.6415 71.5294 30.2937 71.4722 30.9506C71.4246 31.598 71.3627 32.2454 71.2866 32.8929L71.2295 33.3785C71.2009 33.645 71.1533 33.9307 71.0867 34.2353C71.02 34.54 70.9295 34.778 70.8153 34.9494C70.7011 35.1779 70.5773 35.3588 70.444 35.492C70.3107 35.6254 70.1631 35.7301 70.0013 35.8062C69.8394 35.8824 69.668 35.9348 69.4871 35.9633C69.3062 35.9824 69.1111 35.9919 68.9016 35.9919C68.7779 35.9919 68.6446 35.9776 68.5018 35.9491C68.2542 35.8919 68.0543 35.8015 67.9019 35.6777C67.7496 35.5445 67.6259 35.3921 67.5306 35.2207C67.4354 35.0398 67.364 34.8446 67.3164 34.6352C67.2688 34.4162 67.2355 34.1972 67.2164 33.9782C67.1783 33.6736 67.1546 33.3737 67.145 33.0785C67.1355 32.7834 67.126 32.4883 67.1165 32.1931C67.1069 32.0598 67.1022 31.9361 67.1022 31.8218C67.1022 31.698 67.0974 31.5743 67.0879 31.4505C67.0974 31.2601 67.1022 31.0792 67.1022 30.9078C67.1117 30.7364 67.1165 30.5651 67.1165 30.3937C67.1355 29.9367 67.1546 29.4987 67.1736 29.0798C67.1927 28.6514 67.2164 28.223 67.245 27.7945C67.2641 27.5756 67.3022 27.3566 67.3592 27.1376C67.4164 26.9186 67.4925 26.7139 67.5878 26.5235C67.7496 26.1902 67.9591 25.9475 68.2161 25.7951C68.4827 25.6333 68.7683 25.5428 69.073 25.5238C69.3491 25.5047 69.6395 25.5333 69.9442 25.6095C70.2488 25.6856 70.4916 25.8665 70.6725 26.1521C70.9772 26.6567 71.1818 27.1566 71.2866 27.6517C71.4008 28.1468 71.4722 28.5943 71.5008 28.9941ZM69.0587 34.778C69.192 34.778 69.2967 34.7637 69.3729 34.7351C69.449 34.7066 69.5062 34.6733 69.5443 34.6352C69.5824 34.5876 69.6109 34.54 69.6299 34.4924C69.649 34.4353 69.668 34.3829 69.6871 34.3353C69.8394 33.8592 69.9584 33.3499 70.0441 32.8072C70.1393 32.2645 70.2012 31.7266 70.2298 31.1934C70.2679 30.6507 70.2774 30.1319 70.2584 29.6368C70.2393 29.1322 70.1917 28.6847 70.1155 28.2944C70.0489 27.904 69.9536 27.5898 69.8299 27.3518C69.7157 27.1043 69.5776 26.9662 69.4157 26.9376C69.3872 26.9186 69.2967 26.9186 69.1444 26.9376C69.0016 26.9567 68.8826 26.99 68.7874 27.0376C68.7398 27.0566 68.6921 27.0947 68.6446 27.1519C68.597 27.209 68.5541 27.2756 68.516 27.3518C68.4875 27.4184 68.4589 27.4898 68.4303 27.566C68.4113 27.6422 68.4018 27.7088 68.4018 27.7659C68.3732 28.3372 68.3351 28.9037 68.2875 29.4654C68.2495 30.0176 68.2256 30.5698 68.2161 31.122C68.2066 31.3124 68.2114 31.5076 68.2304 31.7075C68.2589 31.898 68.2733 32.0884 68.2733 32.2788C68.2733 32.3835 68.278 32.4835 68.2875 32.5787C68.297 32.6739 68.3066 32.7739 68.3161 32.8786C68.3161 33.1071 68.3351 33.3308 68.3732 33.5498C68.4113 33.7593 68.4542 33.9687 68.5018 34.1782C68.5208 34.2734 68.5827 34.3877 68.6874 34.5209C68.8016 34.6447 68.9255 34.7304 69.0587 34.778Z" fill="#6F6C68"/>
<path d="M60.6995 27.7802C60.7089 27.5041 60.7614 27.2423 60.8565 26.9947C60.9612 26.7472 61.0946 26.5235 61.2564 26.3235C61.4278 26.1236 61.6229 25.9617 61.8419 25.838C62.0609 25.7046 62.2942 25.6142 62.5417 25.5666C63.0558 25.4809 63.5081 25.5285 63.8984 25.7094C64.2983 25.8808 64.622 26.195 64.8695 26.6519C64.9742 26.8424 65.0361 27.0614 65.0552 27.3089C65.0838 27.5564 65.0742 27.7897 65.0266 28.0087C65.0171 28.0658 64.9838 28.1277 64.9267 28.1943C64.8695 28.261 64.7981 28.3229 64.7124 28.38C64.6363 28.4276 64.5554 28.4705 64.4696 28.5085C64.384 28.5371 64.3031 28.5561 64.2269 28.5656C64.1317 28.5847 64.0269 28.5799 63.9127 28.5514C63.808 28.5228 63.7032 28.4514 63.5985 28.3371C63.5414 28.2705 63.5176 28.1705 63.5271 28.0373C63.5462 27.8945 63.5509 27.7564 63.5414 27.6231C63.5414 27.4898 63.5033 27.3755 63.4271 27.2804C63.3509 27.1851 63.1939 27.147 62.9558 27.1661C62.6417 27.2042 62.4179 27.3232 62.2847 27.5231C62.1608 27.7136 62.0847 27.9278 62.0561 28.1657C62.0276 28.3943 62.0276 28.6133 62.0561 28.8227C62.0847 29.0321 62.099 29.1702 62.099 29.2369C62.099 29.5986 62.0895 29.9414 62.0704 30.2651C62.0514 30.5793 62.0276 30.8935 61.999 31.2077C61.98 31.5123 61.9657 31.8265 61.9562 32.1502C61.9466 32.4644 61.9466 32.7977 61.9562 33.1499C61.9562 33.3308 61.9943 33.526 62.0704 33.7355C62.1466 33.9449 62.2513 34.0877 62.3847 34.1639C62.4703 34.2115 62.5703 34.2638 62.6845 34.321C62.7988 34.3685 62.9178 34.4066 63.0416 34.4352C63.1653 34.4543 63.2843 34.4543 63.3986 34.4352C63.5128 34.4162 63.6128 34.3638 63.6985 34.2781C63.7842 34.1924 63.827 34.0353 63.827 33.8069C63.827 33.5783 63.8222 33.3451 63.8127 33.107C63.8127 32.8691 63.827 32.6643 63.8555 32.4929C63.8936 32.312 63.9889 32.2311 64.1412 32.2502C64.4459 32.2883 64.6649 32.3787 64.7981 32.5215C64.9314 32.6643 64.9981 32.7881 64.9981 32.8928C64.9981 33.0928 64.9981 33.3023 64.9981 33.5212C65.0076 33.7402 65.0028 33.9544 64.9838 34.1639C64.9647 34.3733 64.9267 34.5733 64.8695 34.7637C64.8219 34.9541 64.7458 35.1207 64.641 35.2635C64.4601 35.492 64.2459 35.6634 63.9984 35.7776C63.7508 35.8919 63.4843 35.9633 63.1986 35.9918C62.9225 36.0109 62.6417 35.9966 62.3561 35.949C62.0799 35.9014 61.8181 35.8348 61.5706 35.7491C61.3516 35.6729 61.1755 35.5634 61.0421 35.4206C60.9089 35.2683 60.8042 35.1017 60.728 34.9208C60.6614 34.7303 60.6185 34.5257 60.5995 34.3067C60.59 34.0782 60.5947 33.8497 60.6138 33.6212C60.6233 33.4688 60.628 33.2451 60.628 32.95C60.6375 32.6453 60.6423 32.3073 60.6423 31.936C60.6518 31.5551 60.6566 31.16 60.6566 30.7507C60.6661 30.3317 60.6709 29.9319 60.6709 29.5511C60.6709 29.1702 60.6709 28.8227 60.6709 28.5085C60.6804 28.1943 60.6899 27.9515 60.6995 27.7802Z" fill="#6F6C68"/>
<path d="M58.6366 28.9941C58.6746 29.6415 58.6651 30.2937 58.608 30.9506C58.5604 31.598 58.4985 32.2454 58.4223 32.8929L58.3652 33.3785C58.3366 33.645 58.289 33.9307 58.2223 34.2353C58.1557 34.54 58.0653 34.778 57.9511 34.9494C57.8368 35.1779 57.713 35.3588 57.5797 35.492C57.4465 35.6254 57.2989 35.7301 57.137 35.8062C56.9752 35.8824 56.8038 35.9348 56.6229 35.9633C56.442 35.9824 56.2468 35.9919 56.0374 35.9919C55.9136 35.9919 55.7803 35.9776 55.6375 35.9491C55.39 35.8919 55.19 35.8015 55.0377 35.6777C54.8854 35.5445 54.7615 35.3921 54.6664 35.2207C54.5712 35.0398 54.4997 34.8446 54.4522 34.6352C54.4045 34.4162 54.3712 34.1972 54.3522 33.9782C54.3141 33.6736 54.2903 33.3737 54.2808 33.0785C54.2713 32.7834 54.2617 32.4883 54.2522 32.1931C54.2427 32.0598 54.2379 31.9361 54.2379 31.8218C54.2379 31.698 54.2332 31.5743 54.2236 31.4505C54.2332 31.2601 54.2379 31.0792 54.2379 30.9078C54.2474 30.7364 54.2522 30.5651 54.2522 30.3937C54.2713 29.9367 54.2903 29.4987 54.3094 29.0798C54.3283 28.6514 54.3522 28.223 54.3808 27.7945C54.3998 27.5756 54.4378 27.3566 54.495 27.1376C54.5521 26.9186 54.6283 26.7139 54.7235 26.5235C54.8854 26.1902 55.0948 25.9475 55.3519 25.7951C55.6184 25.6333 55.9041 25.5428 56.2087 25.5238C56.4848 25.5047 56.7752 25.5333 57.0799 25.6095C57.3845 25.6856 57.6274 25.8665 57.8082 26.1521C58.1129 26.6567 58.3176 27.1566 58.4223 27.6517C58.5366 28.1468 58.608 28.5943 58.6366 28.9941ZM56.1944 34.778C56.3278 34.778 56.4325 34.7637 56.5087 34.7351C56.5848 34.7066 56.6419 34.6733 56.68 34.6352C56.7181 34.5876 56.7466 34.54 56.7657 34.4924C56.7847 34.4353 56.8038 34.3829 56.8228 34.3353C56.9752 33.8592 57.0942 33.3499 57.1798 32.8072C57.2751 32.2645 57.337 31.7266 57.3655 31.1934C57.4036 30.6507 57.4131 30.1319 57.394 29.6368C57.375 29.1322 57.3274 28.6847 57.2512 28.2944C57.1846 27.904 57.0894 27.5898 56.9656 27.3518C56.8514 27.1043 56.7133 26.9662 56.5515 26.9376C56.5229 26.9186 56.4325 26.9186 56.2801 26.9376C56.1373 26.9567 56.0183 26.99 55.9231 27.0376C55.8755 27.0566 55.8279 27.0947 55.7803 27.1519C55.7327 27.209 55.6898 27.2756 55.6518 27.3518C55.6232 27.4184 55.5946 27.4898 55.5661 27.566C55.547 27.6422 55.5375 27.7088 55.5375 27.7659C55.509 28.3372 55.4709 28.9037 55.4233 29.4654C55.3852 30.0176 55.3614 30.5698 55.3519 31.122C55.3423 31.3124 55.3471 31.5076 55.3661 31.7075C55.3947 31.898 55.409 32.0884 55.409 32.2788C55.409 32.3835 55.4137 32.4835 55.4233 32.5787C55.4328 32.6739 55.4423 32.7739 55.4518 32.8786C55.4518 33.1071 55.4709 33.3308 55.509 33.5498C55.547 33.7593 55.5899 33.9687 55.6375 34.1782C55.6565 34.2734 55.7184 34.3877 55.8232 34.5209C55.9374 34.6447 56.0611 34.7304 56.1944 34.778Z" fill="#6F6C68"/>
<path d="M51.7876 25.5666C51.8543 25.5761 51.9447 25.5904 52.059 25.6094C52.1733 25.6285 52.2875 25.676 52.4017 25.7522C52.516 25.8189 52.6159 25.9236 52.7016 26.0664C52.7873 26.1997 52.8302 26.3806 52.8302 26.6091C52.8302 26.7709 52.8063 26.8995 52.7588 26.9947C52.7112 27.0804 52.6493 27.147 52.5731 27.1946C52.5065 27.2422 52.4351 27.2755 52.3589 27.2946C52.2922 27.3041 52.2399 27.3136 52.2018 27.3232H52.1304L52.1018 27.3374H51.2307C50.7832 27.3279 50.5119 27.3708 50.4166 27.466C50.3595 27.5231 50.3262 27.6278 50.3167 27.7801C50.3072 27.9229 50.3072 28.1038 50.3167 28.3228V28.9798V29.0369C50.2977 29.7224 50.2786 30.4031 50.2596 31.0791C50.2405 31.7551 50.2215 32.4263 50.2024 33.0928L50.1596 34.5066V34.6066C50.1596 34.6637 50.1596 34.7208 50.1596 34.7779C50.1596 34.8256 50.1548 34.8731 50.1453 34.9207V35.1349V35.1778C50.1548 35.2635 50.1596 35.3682 50.1596 35.492C50.1596 35.6062 50.112 35.7109 50.0168 35.8062C49.9215 35.9299 49.7645 35.9918 49.5455 35.9918C49.2789 35.9918 49.0742 35.9157 48.9314 35.7634C48.8076 35.6395 48.7362 35.5063 48.7172 35.3635C48.6981 35.2111 48.6886 35.0968 48.6886 35.0207C48.7077 34.1543 48.7267 33.2974 48.7458 32.4501C48.7648 31.5932 48.7839 30.7459 48.8028 29.908L48.8314 28.837V28.5228C48.8314 28.3895 48.8314 28.2562 48.8314 28.1229C48.8314 27.9896 48.8409 27.8659 48.86 27.7516C48.879 27.5992 48.8838 27.5041 48.8743 27.466C48.8743 27.4183 48.8553 27.3707 48.8172 27.3232L48.7886 27.2803C48.7695 27.2613 48.741 27.247 48.7029 27.2374C48.6744 27.2279 48.5934 27.2232 48.4601 27.2232H48.3744C48.2982 27.2232 48.1935 27.2184 48.0603 27.2089C47.9365 27.1994 47.8032 27.1804 47.6604 27.1518C47.5176 27.1232 47.3748 27.0804 47.232 27.0232C47.0986 26.9661 46.9892 26.89 46.9035 26.7947C46.7702 26.6519 46.713 26.4805 46.7321 26.2806C46.7511 26.0712 46.8225 25.9141 46.9463 25.8094C47.0796 25.7046 47.2272 25.6332 47.389 25.5951C47.5604 25.5475 47.727 25.5237 47.8889 25.5237C48.0603 25.5237 48.1935 25.5285 48.2887 25.538H48.3887C48.4839 25.538 48.6219 25.538 48.8028 25.538C48.9933 25.538 49.179 25.5427 49.3599 25.5523C49.5408 25.5523 49.6978 25.5571 49.8311 25.5666C49.974 25.5666 50.0454 25.5666 50.0454 25.5666C50.0739 25.5666 50.1405 25.5666 50.2452 25.5666C50.35 25.5666 50.4738 25.5666 50.6166 25.5666C50.7689 25.5666 50.9355 25.5666 51.1164 25.5666C51.2973 25.5571 51.4782 25.5523 51.6591 25.5523H51.6734H51.702H51.7734L51.7876 25.5666Z" fill="#6F6C68"/>
<path d="M45.3396 28.9941C45.3777 29.6415 45.3682 30.2937 45.311 30.9506C45.2635 31.598 45.2015 32.2454 45.1254 32.8929L45.0683 33.3785C45.0397 33.645 44.9921 33.9307 44.9255 34.2353C44.8588 34.54 44.7683 34.778 44.6541 34.9494C44.5399 35.1779 44.4161 35.3588 44.2828 35.492C44.1495 35.6254 44.0019 35.7301 43.8401 35.8062C43.6782 35.8824 43.5068 35.9348 43.3259 35.9633C43.1451 35.9824 42.9499 35.9919 42.7404 35.9919C42.6167 35.9919 42.4834 35.9776 42.3406 35.9491C42.093 35.8919 41.8931 35.8015 41.7407 35.6777C41.5884 35.5445 41.4647 35.3921 41.3694 35.2207C41.2742 35.0398 41.2028 34.8446 41.1552 34.6352C41.1077 34.4162 41.0743 34.1972 41.0552 33.9782C41.0172 33.6736 40.9934 33.3737 40.9838 33.0785C40.9743 32.7834 40.9648 32.4883 40.9553 32.1931C40.9457 32.0598 40.941 31.9361 40.941 31.8218C40.941 31.698 40.9363 31.5743 40.9268 31.4505C40.9363 31.2601 40.941 31.0792 40.941 30.9078C40.9505 30.7364 40.9553 30.5651 40.9553 30.3937C40.9743 29.9367 40.9934 29.4987 41.0124 29.0798C41.0315 28.6514 41.0552 28.223 41.0838 27.7945C41.1029 27.5756 41.141 27.3566 41.198 27.1376C41.2552 26.9186 41.3314 26.7139 41.4266 26.5235C41.5884 26.1902 41.7979 25.9475 42.0549 25.7951C42.3215 25.6333 42.6071 25.5428 42.9118 25.5238C43.1879 25.5047 43.4783 25.5333 43.783 25.6095C44.0876 25.6856 44.3304 25.8665 44.5113 26.1521C44.816 26.6567 45.0206 27.1566 45.1254 27.6517C45.2396 28.1468 45.311 28.5943 45.3396 28.9941ZM42.8975 34.778C43.0308 34.778 43.1356 34.7637 43.2117 34.7351C43.2879 34.7066 43.345 34.6733 43.3831 34.6352C43.4212 34.5876 43.4498 34.54 43.4688 34.4924C43.4878 34.4353 43.5068 34.3829 43.5259 34.3353C43.6782 33.8592 43.7972 33.3499 43.883 32.8072C43.9781 32.2645 44.04 31.7266 44.0686 31.1934C44.1067 30.6507 44.1162 30.1319 44.0972 29.6368C44.0781 29.1322 44.0305 28.6847 43.9544 28.2944C43.8877 27.904 43.7925 27.5898 43.6687 27.3518C43.5545 27.1043 43.4164 26.9662 43.2545 26.9376C43.226 26.9186 43.1356 26.9186 42.9832 26.9376C42.8404 26.9567 42.7214 26.99 42.6262 27.0376C42.5786 27.0566 42.531 27.0947 42.4834 27.1519C42.4358 27.209 42.3929 27.2756 42.3548 27.3518C42.3263 27.4184 42.2978 27.4898 42.2692 27.566C42.2501 27.6422 42.2406 27.7088 42.2406 27.7659C42.212 28.3372 42.1739 28.9037 42.1264 29.4654C42.0883 30.0176 42.0644 30.5698 42.0549 31.122C42.0455 31.3124 42.0502 31.5076 42.0692 31.7075C42.0978 31.898 42.1121 32.0884 42.1121 32.2788C42.1121 32.3835 42.1169 32.4835 42.1264 32.5787C42.1358 32.6739 42.1454 32.7739 42.1549 32.8786C42.1549 33.1071 42.1739 33.3308 42.212 33.5498C42.2501 33.7593 42.293 33.9687 42.3406 34.1782C42.3596 34.2734 42.4215 34.3877 42.5262 34.5209C42.6404 34.6447 42.7643 34.7304 42.8975 34.778Z" fill="#6F6C68"/>
<path d="M39.2994 35.4206C39.3089 35.4967 39.3089 35.5729 39.2994 35.6491C39.2994 35.7157 39.2708 35.7728 39.2136 35.8204C39.128 35.9347 38.8757 35.9918 38.4567 35.9918C38.352 35.9918 38.2711 35.9632 38.214 35.9062C38.1568 35.8395 38.114 35.7634 38.0854 35.6776C38.0568 35.5825 38.0379 35.4872 38.0283 35.392C38.0188 35.2873 38.0093 35.1921 37.9998 35.1064C37.9998 35.0302 37.995 34.9779 37.9854 34.9493C37.9474 34.6827 37.8759 34.4257 37.7712 34.1781C37.6665 33.9306 37.5427 33.7021 37.3999 33.4926C37.2571 33.2832 37.1001 33.1023 36.9287 32.95C36.7668 32.7881 36.6049 32.6596 36.4431 32.5643C36.1194 32.3929 35.8528 32.3501 35.6433 32.4358L35.6291 32.4501C35.61 32.4691 35.5957 32.5215 35.5862 32.6072C35.5862 32.6833 35.5862 32.7786 35.5862 32.8928C35.5862 33.007 35.591 33.1309 35.6005 33.2641C35.61 33.3879 35.6196 33.5069 35.6291 33.6211C35.6481 33.8497 35.6672 34.0781 35.6862 34.3066C35.7052 34.5352 35.7052 34.7351 35.6862 34.9065C35.6766 34.9445 35.6719 34.9826 35.6719 35.0207C35.6814 35.0493 35.6862 35.0826 35.6862 35.1207C35.6957 35.2254 35.691 35.3397 35.6719 35.4634C35.6624 35.5872 35.6196 35.6919 35.5434 35.7776C35.4196 35.9014 35.2482 35.9632 35.0292 35.9632C34.8008 35.9823 34.6199 35.9252 34.4865 35.7919C34.3723 35.6872 34.3057 35.5539 34.2867 35.392C34.2771 35.2302 34.2723 35.0921 34.2723 34.9779V34.8779C34.2628 33.783 34.2676 32.6929 34.2867 31.6075C34.3057 30.5126 34.3247 29.4272 34.3437 28.3514C34.3533 28.0562 34.3581 27.7659 34.3581 27.4802C34.3676 27.1851 34.3723 26.89 34.3723 26.5948C34.3818 26.3568 34.4247 26.1712 34.5009 26.0378C34.5865 25.895 34.6913 25.7855 34.815 25.7094C34.9388 25.6332 35.0721 25.5856 35.2149 25.5666C35.3577 25.538 35.4958 25.5237 35.6291 25.5237C35.9718 25.5237 36.3098 25.5808 36.643 25.6951C36.9762 25.8094 37.2857 25.9712 37.5713 26.1807C37.8665 26.3901 38.1235 26.6329 38.3425 26.909C38.571 27.1851 38.7376 27.485 38.8423 27.8087C38.9661 28.18 39.0185 28.5466 38.9994 28.9084C38.9899 29.2606 38.928 29.5986 38.8137 29.9223C38.709 30.2365 38.5614 30.5317 38.3711 30.8077C38.1902 31.0839 37.9854 31.3219 37.757 31.5218C37.757 31.6075 37.7808 31.717 37.8284 31.8503C37.8855 31.9741 37.9521 32.1169 38.0283 32.2787C38.114 32.431 38.2044 32.5929 38.2996 32.7643C38.4044 32.9356 38.5044 33.107 38.5995 33.2784C38.6853 33.4212 38.7662 33.5593 38.8423 33.6925C38.9185 33.8258 38.9899 33.9544 39.0566 34.0781C39.0946 34.1448 39.128 34.2352 39.1565 34.3495C39.1851 34.4542 39.2089 34.5685 39.228 34.6922C39.2565 34.816 39.2755 34.9398 39.285 35.0635C39.2946 35.1873 39.2994 35.2968 39.2994 35.392V35.4206ZM35.829 26.9947C35.8005 27.0423 35.7719 27.1565 35.7433 27.3374C35.7243 27.5183 35.71 27.7325 35.7005 27.9801C35.691 28.2181 35.6862 28.4752 35.6862 28.7512C35.6862 29.0274 35.691 29.2892 35.7005 29.5367C35.71 29.7843 35.7243 29.9985 35.7433 30.1794C35.7624 30.3603 35.7861 30.4793 35.8147 30.5364C36.0623 30.5554 36.2907 30.5317 36.5002 30.465C36.7192 30.3889 36.9144 30.2698 37.0857 30.108C37.2762 29.9461 37.419 29.7509 37.5142 29.5225C37.6189 29.2844 37.6713 29.0416 37.6713 28.7941C37.6713 28.6513 37.638 28.5085 37.5713 28.3657C37.5142 28.2133 37.4333 28.0705 37.3285 27.9373C37.2333 27.7945 37.119 27.6611 36.9858 27.5374C36.8525 27.4136 36.7192 27.3088 36.5859 27.2232C36.2527 27.0137 36.0004 26.9376 35.829 26.9947Z" fill="#6F6C68"/>
<path d="M31.8103 27.109C32.1245 27.5945 32.3149 28.1087 32.3815 28.6513C32.4482 29.194 32.3815 29.7272 32.1815 30.2508C31.7627 31.3267 31.0581 31.8884 30.068 31.936C29.7252 31.955 29.4776 32.0502 29.3253 32.2216C29.173 32.3834 29.1016 32.6501 29.1111 33.0214C29.1111 33.1261 29.1111 33.2403 29.1111 33.3641C29.1206 33.4784 29.1302 33.5926 29.1397 33.7069C29.1587 33.8878 29.173 34.0734 29.1825 34.2638C29.192 34.4447 29.1873 34.6304 29.1683 34.8208C29.1587 34.8875 29.1539 34.9874 29.1539 35.1207C29.1635 35.2445 29.1539 35.373 29.1254 35.5063C29.1064 35.63 29.054 35.7443 28.9683 35.849C28.8921 35.9442 28.7684 35.9918 28.597 35.9918C28.4256 35.9918 28.2923 35.9537 28.1971 35.8776C28.1114 35.7919 28.0448 35.6967 27.9972 35.592C27.9591 35.4777 27.9401 35.3635 27.9401 35.2493C27.9401 35.1254 27.9401 35.0207 27.9401 34.935C27.9305 34.7447 27.9258 34.6161 27.9258 34.5494C27.9258 34.4733 27.9305 34.4209 27.9401 34.3924L27.8972 32.0788C27.8782 31.1458 27.8639 30.2413 27.8543 29.3654C27.8449 28.4799 27.8354 27.5945 27.8258 26.7091C27.8163 26.4806 27.8258 26.2854 27.8543 26.1236C27.8829 25.9617 27.9496 25.8284 28.0543 25.7237C28.1495 25.6285 28.278 25.5713 28.4399 25.5523C28.6113 25.5237 28.8207 25.5142 29.0683 25.5237C29.611 25.5428 30.1251 25.6951 30.6107 25.9808C31.0962 26.2568 31.496 26.6329 31.8103 27.109ZM29.0969 29.4797C29.0778 29.7081 29.0778 29.9129 29.0969 30.0937C29.1159 30.2555 29.1444 30.4127 29.1825 30.565C29.2301 30.7078 29.3158 30.803 29.4396 30.8506C29.5634 30.8982 29.6729 30.9221 29.768 30.9221C29.8633 30.9221 29.9537 30.9077 30.0394 30.8792C30.1251 30.8411 30.2012 30.7982 30.2679 30.7507C30.344 30.6935 30.4154 30.6412 30.4821 30.5936C30.6821 30.4603 30.8296 30.3127 30.9248 30.1508C31.02 29.9795 31.0819 29.8034 31.1105 29.6225C31.1486 29.4416 31.1581 29.2559 31.139 29.0655C31.1295 28.8751 31.1057 28.6847 31.0676 28.4942C30.9725 28.0373 30.8153 27.6802 30.5963 27.4232C30.3774 27.1565 30.087 26.9709 29.7252 26.8661C29.4776 26.8091 29.3063 26.8186 29.2111 26.8947C29.1254 26.9709 29.0825 27.1184 29.0825 27.3374C29.0921 27.585 29.0969 27.8325 29.0969 28.0801C29.0969 28.3276 29.0969 28.5752 29.0969 28.8227V29.4797Z" fill="#6F6C68"/>
<path fill-rule="evenodd" clip-rule="evenodd" d="M49.0058 0.215257C48.8607 0.325432 48.4946 0.93555 48.1815 1.56646C47.8738 2.19737 47.2332 3.40202 46.7564 4.24601L45.8936 5.77703L43.7402 5.88097C35.3733 6.28724 35.1544 6.35516 33.9097 6.74137C33.5336 6.85808 33.0638 7.00386 32.2471 7.19682C30.4328 7.62713 30.1856 7.79243 30.5111 8.30482C30.8366 8.81723 31.3217 8.87333 32.8001 8.56882C32.8769 8.553 32.9524 8.5374 33.0268 8.52203C34.9113 8.13263 36.0898 7.88925 40.7354 7.76227L45.0131 7.64587L44.4914 9.02925C44.2034 9.78907 43.8706 10.8181 43.7516 11.3159L43.5357 12.2202L41.7443 12.3355C40.7594 12.4 38.917 12.453 37.6504 12.453C35.0421 12.4541 34.5007 12.2981 33.4772 11.2484C32.9242 10.684 32.7458 10.5915 32.0896 10.5426C31.4083 10.4906 31.3352 10.5561 31.3352 11.1995C31.3238 11.7052 31.2691 12.2091 31.1714 12.7056L31.0066 13.4986C30.7718 13.4273 30.6477 13.353 30.5699 13.2824C30.3596 12.7696 29.3305 12.3328 28.9106 12.5039C27.7059 12.9867 27.092 13.1303 26.3649 13.3002C25.8334 13.4245 25.2413 13.5628 24.3138 13.8583C23.2976 14.1742 22.2741 14.4674 21.2194 14.7386C20.9906 14.7986 20.7488 14.8747 20.4983 14.9534C19.7156 15.1995 18.8469 15.4727 18.0195 15.3695C18.3654 15.0842 18.6277 14.6641 18.8908 14.2427C19.0849 13.932 19.2794 13.6204 19.5083 13.3615C19.6118 13.2542 19.7849 13.1247 19.9793 12.9793C20.5193 12.5754 21.2236 12.0486 21.0556 11.5343C20.9137 11.1049 20.079 10.5862 19.6617 10.474C18.8466 10.2514 18.4025 10.7736 18.0035 11.2427C17.9164 11.3452 17.8314 11.4451 17.7452 11.5343C17.6301 11.6452 17.4933 11.7668 17.3455 11.8981C16.4408 12.7021 15.1238 13.8725 15.8672 15.2126C16.5965 16.4984 18.5558 16.8818 19.7441 16.9494C22.5512 17.077 23.599 16.6423 25.6859 15.7765C25.8097 15.7252 25.937 15.6723 26.0687 15.6179C26.2754 15.5324 26.4825 15.4462 26.69 15.3593C27.5114 15.0305 28.0622 14.8165 28.1981 14.8165C28.2523 14.8165 28.8209 15.1533 29.0191 15.5546C29.4719 16.4744 30.4015 17.0783 31.3613 17.0783C32.2304 17.0773 32.6853 16.6084 33.3437 15.038C33.8976 13.7169 33.9018 13.7148 34.6509 13.9871C35.9269 14.4517 37.617 14.6378 40.5706 14.6378H43.4053L43.5179 15.119C43.6388 15.5125 43.8121 15.8879 44.0333 16.2353C44.5709 17.0842 45.3175 17.4289 46.698 17.4532C46.8092 17.4663 46.9222 17.4733 47.037 17.4733C49.709 17.2654 52.4894 16.5929 54.6365 15.5098C54.7268 15.4621 54.826 15.412 54.9318 15.3593C55.5827 16.2107 57.0917 16.6551 57.9428 16.6354C60.6261 16.6136 63.0706 16.0045 65.3012 15.1013C66.2568 17.4483 69.8302 17.0834 71.3461 16.7717C72.6072 16.5068 73.7309 16.049 74.7943 15.5083C75.3095 16.0315 76.1585 16.3857 76.7712 16.4557C78.908 16.6595 81.0965 15.4271 82.7337 14.5051L82.7352 14.5044C82.91 14.406 83.0787 14.3112 83.24 14.222C83.7387 15.7934 85.364 16.1047 86.8362 16.0066C86.8865 16.0045 86.9382 16.0019 86.9907 15.9987C87.3762 15.9799 87.7175 15.9325 88.0077 15.8651C88.2515 15.8157 88.502 15.7518 88.7562 15.6704C90.4272 15.1343 91.292 14.6935 91.4337 14.6179C92.24 14.3227 94.0197 13.2706 94.6902 11.4243C95.525 8.09783 96.8877 5.16755 98.5655 3.09116C99.092 2.4401 99.1415 2.2063 98.852 1.74959C98.3885 1.01834 97.3625 0.536658 96.815 0.793177C95.8497 1.245 92.5985 7.7583 91.733 10.975C91.5747 11.5646 91.0257 12.4675 90.521 12.7815C90.3897 12.8633 90.2435 12.9454 90.0852 13.0269C88.8785 13.5617 87.3237 14.1545 86.054 14.3201C85.9115 14.3218 85.763 14.3255 85.6092 14.3311C85.6925 13.9491 85.8725 13.6325 86.0427 13.3324C86.204 13.0475 86.357 12.7775 86.411 12.4808C86.4875 11.9844 86.1882 11.5783 85.5942 11.2172C84.8922 10.7844 84.6245 10.849 84.1542 10.9625C84.0852 10.9791 84.0117 10.9968 83.9322 11.0141C83.3772 11.1427 82.6872 11.0954 81.9905 11.0476C81.464 11.0117 80.9345 10.9754 80.4552 11.0141C78.9597 11.1437 77.6322 11.5637 76.5035 12.2324C76.106 12.4646 75.7325 12.7275 75.3852 13.0192L75.3312 13.0539C75.1295 13.1831 74.9402 13.3042 74.7671 13.3895C72.6617 14.3821 70.2068 15.3976 67.5161 15.3976C67.6457 15.22 67.6929 14.9513 67.7386 14.6917C67.7683 14.5228 67.7973 14.3577 67.8479 14.2241C67.8826 14.129 67.9274 14.0435 67.9706 13.9613C68.1014 13.712 68.2168 13.4921 67.9877 13.1192C67.3388 12.0809 66.0023 12.216 65.3982 12.5548C62.8788 13.8691 60.1263 14.6811 57.2948 14.9454C57.684 14.3167 58.2107 13.7837 58.8358 13.3864C58.9417 13.3167 59.0665 13.262 59.188 13.2087C59.538 13.0552 59.861 12.9134 59.6288 12.4613C59.0101 11.2203 57.4399 11.4458 56.8034 11.8294C56.4437 12.047 55.9583 12.363 55.5356 12.7526C54.1171 13.6982 52.3027 14.2397 50.5395 14.766L50.5375 14.7666C50.4653 14.7881 50.3933 14.8097 50.3214 14.8312C50.1644 14.8766 50.0054 14.9233 49.8443 14.9706C47.4524 15.6167 46.1801 15.0267 46.0772 14.9652C45.6212 14.695 46.0678 12.48 47.0475 10.158L48.1022 7.65L50.3975 7.77262C56.5238 8.09902 59.0883 8.40668 59.6934 8.88893C60.8212 9.78592 62.1984 9.56453 61.6871 8.56778C60.8191 6.86838 58.0648 6.04622 52.577 5.84458L49.1341 5.71778L50.3527 3.66499C51.3407 1.99468 51.5108 1.51449 51.2552 1.11225C50.9213 0.585279 50.0073 -0.00924548 49.5462 0.000108994C49.3495 0.0203517 49.1623 0.0948563 49.0058 0.215257ZM78.086 14.0863C78.038 14.1222 77.9907 14.1587 77.9442 14.1957C79.0145 13.819 80.003 13.3334 80.9765 12.8031C79.931 13.0207 78.9455 13.4585 78.086 14.0863Z" fill="#6F6C68"/>
<path fill-rule="evenodd" clip-rule="evenodd" d="M16.4272 10.5252C18.3353 9.85946 20.1334 8.72343 21.5079 7.48995L21.5089 7.49204C21.5624 7.44198 21.5955 7.37396 21.6017 7.30108C21.608 7.2282 21.5869 7.15562 21.5425 7.09729C21.4982 7.03896 21.4339 6.99902 21.3618 6.98516C21.2897 6.97131 21.215 6.98451 21.1521 7.02223C19.7735 7.84646 18.2519 8.49903 16.6922 8.89728C16.7388 8.30418 16.729 7.70726 16.6523 7.11369C16.476 5.79575 16.0284 4.47884 15.0978 3.47584C14.067 2.33563 12.3748 1.90948 10.9142 2.36576C9.1593 2.88754 7.69658 4.46845 7.64025 6.35494C7.5693 8.83908 9.88335 10.8638 12.2381 11.0914C12.5128 11.1215 12.7899 11.1361 13.0685 11.1365C12.6343 12.0853 12.0709 12.9918 11.468 13.8312C9.61665 10.7773 6.84118 8.27598 3.54212 6.9079C2.77378 6.58284 1.9772 6.32851 1.16234 6.1481C0.88482 6.09093 0.620861 6.04001 0.327692 6.00779C0.256507 6.00106 0.185257 6.01994 0.126828 6.061C0.0683992 6.10206 0.026648 6.16259 0.00912787 6.23166C-0.00839228 6.30072 -0.000526185 6.37376 0.0313039 6.43754C0.0631339 6.50133 0.116827 6.55167 0.182671 6.57945C2.02455 7.4902 3.71384 8.67948 5.19055 10.1051C7.1042 11.9461 8.6118 14.1642 9.61732 16.6179C10.0607 17.6749 11.4514 18.0615 12.382 17.3818C12.5249 17.2765 12.6555 17.1555 12.7712 17.0211C13.6056 16.1167 14.3401 15.1257 14.9621 14.0652C15.5977 12.9813 16.1213 11.7774 16.4272 10.5252ZM12.2983 15.3669L12.3226 15.4164C12.3148 15.3996 12.3067 15.3831 12.2983 15.3669ZM13.7188 9.27311C13.8645 8.65068 13.9368 8.01791 13.9136 7.38081C13.852 6.23748 13.4118 4.62228 12.0523 4.59734C10.8818 4.58382 9.80513 5.68973 10.14 6.86424C10.6357 8.57838 12.1161 9.20358 13.7188 9.27311Z" fill="#6F6C68"/>
<path d="M22.4116 6.32376C22.5316 6.88295 22.7163 7.23738 23.2557 7.16566C23.7189 7.10434 24.1008 6.63973 24.1008 6.17512C24.1008 5.71051 23.7169 5.41013 23.2557 5.48289C22.6704 5.57539 22.3136 5.86955 22.4116 6.32376Z" fill="#6F6C68"/>
<path d="M94.4305 15.0853C93.7495 14.826 93.0932 14.5761 93.7982 14.1646C94.2962 13.8737 95.119 13.6207 96.0115 13.346C96.8777 13.0795 97.8107 12.7925 98.5772 12.431C101.878 10.8755 103.454 10.5524 104.609 11.1947C106.063 12.0032 105.833 12.9532 104.097 13.3141C103.493 13.4399 102.125 13.9684 101.057 14.4884C97.6742 16.1366 96.6632 16.2941 95.1632 15.4053C94.969 15.2903 94.6975 15.1871 94.4305 15.0853Z" fill="#6F6C68"/>
</g>
<defs>
<clipPath id="clip0_80_202">
<rect width="105.75" height="36" fill="white"/>
</clipPath>
</defs>
</svg>
