<svg width="94" height="36" viewBox="0 0 94 36" fill="none" xmlns="http://www.w3.org/2000/svg">
<path d="M18.8285 22.1826C18.8285 21.9604 18.9568 21.6531 19.1148 21.4968L21.0698 19.5617C21.1073 19.5247 21.1371 19.4806 21.1575 19.4319C21.1778 19.3833 21.1883 19.3311 21.1884 19.2784C21.1884 19.2257 21.178 19.1735 21.1577 19.1248C21.1374 19.0761 21.1077 19.0319 21.0703 18.9948L19.5683 17.5033C19.4923 17.4281 19.3897 17.3859 19.2827 17.386C19.1758 17.386 19.0732 17.4283 18.9972 17.5036L16.1908 20.2958C16.0332 20.4525 15.9053 20.7601 15.9053 20.9823V24.3886C15.9053 24.6108 16.0334 24.9182 16.191 25.0748L24.3597 33.1853C24.5175 33.3419 24.7743 33.3428 24.9331 33.1872L26.4451 31.7065C26.4828 31.6696 26.5128 31.6257 26.5334 31.5772C26.554 31.5286 26.5648 31.4765 26.5651 31.4238C26.5653 31.3711 26.5551 31.3189 26.5351 31.2701C26.515 31.2214 26.4854 31.1771 26.4481 31.1399L19.1132 23.8028C18.9561 23.6456 18.8285 23.3376 18.8285 23.1155V22.1826Z" fill="#6F6C68"/>
<mask id="mask0_75_3" style="mask-type:luminance" maskUnits="userSpaceOnUse" x="14" y="19" width="8" height="8">
<path d="M21.2674 19.4008H14.3398V26.0829H21.2674V19.4008Z" fill="white"/>
</mask>
<g mask="url(#mask0_75_3)">
<path d="M18.8285 21.7802L21.356 19.2786L19.2826 17.2197L15.9053 20.5799V24.7912L24.6455 33.4691L26.7327 31.4248L18.8285 23.5181V21.7802Z" fill="#6F6C68"/>
</g>
<path d="M13.022 23.139C13.022 23.3612 12.8942 23.6689 12.7368 23.8257L5.4096 31.126C5.37219 31.1632 5.34251 31.2075 5.32228 31.2563C5.30204 31.305 5.29165 31.3573 5.29169 31.41C5.29174 31.4628 5.30222 31.5151 5.32254 31.5638C5.34286 31.6125 5.37261 31.6567 5.41008 31.6939L6.912 33.1855C6.98795 33.2607 7.09059 33.3029 7.19753 33.3027C7.30447 33.3026 7.40702 33.2602 7.4828 33.1848L15.6602 25.0262C15.8176 24.8692 15.9453 24.5615 15.9453 24.3393V20.933C15.9453 20.7108 15.8172 20.4034 15.6596 20.2468L7.49085 12.1363C7.33313 11.9797 7.07625 11.9788 6.91748 12.1344L5.40549 13.6151C5.36777 13.652 5.33774 13.6959 5.31714 13.7444C5.29655 13.793 5.2858 13.8451 5.28552 13.8978C5.28525 13.9505 5.29545 14.0027 5.31553 14.0515C5.33561 14.1002 5.36518 14.1444 5.40251 14.1817L12.7374 21.5188C12.8944 21.6759 13.022 21.984 13.022 22.2061V23.139Z" fill="#6F6C68"/>
<mask id="mask1_75_3" style="mask-type:luminance" maskUnits="userSpaceOnUse" x="10" y="19" width="8" height="7">
<path d="M10.7108 25.9622H17.5176V19.4813H10.7108V25.9622Z" fill="white"/>
</mask>
<g mask="url(#mask1_75_3)">
<path d="M13.023 23.5415L5.12534 31.4101L7.1987 33.4691L15.9463 24.7418V20.5304L7.20611 11.8525L5.11881 13.8969L13.023 21.8035V23.5415Z" fill="#6F6C68"/>
</g>
<path d="M88.0645 32.0222H69.2693C69.2336 32.0222 69.1995 32.0081 69.1743 31.9829C69.1491 31.9578 69.135 31.9236 69.135 31.888V27.6224C69.135 27.5483 69.177 27.4452 69.2287 27.3921L86.2883 9.9244C86.3399 9.8714 86.382 9.76822 86.382 9.69415V7.2062C86.382 7.13213 86.3403 7.02855 86.2893 6.97501L82.2394 2.73401C82.1884 2.68047 82.0866 2.637 82.0125 2.637H71.4122C71.3381 2.637 71.2354 2.6794 71.1829 2.73173L67.1206 6.78233" stroke="#6F6C68" stroke-width="4.19522"/>
<path d="M63.2273 8.9435L46.7139 25.4475M63.2273 8.00425V26.6551C63.2273 29.6173 60.8208 32.0223 57.8571 32.0223H52.0841C49.1203 32.0223 46.7139 29.6173 46.7139 26.6551V8.00425C46.7139 5.04217 49.1203 2.63708 52.0841 2.63708H57.8571C60.8208 2.63708 63.2273 5.04217 63.2273 8.00425Z" stroke="#6F6C68" stroke-width="4.19522"/>
<path d="M43.2226 17.7421H26.105C26.0309 17.7421 25.929 17.6989 25.8775 17.6455L23.8489 15.5476C23.8241 15.5218 23.8104 15.4873 23.8105 15.4514C23.8107 15.4156 23.8248 15.3813 23.8498 15.3556L36.1664 2.86678C36.2184 2.81404 36.3208 2.77124 36.3949 2.77124H37.3774C37.413 2.77124 37.4471 2.78538 37.4723 2.81054C37.4975 2.8357 37.5116 2.86983 37.5116 2.90542V33.3641" stroke="#6F6C68" stroke-width="4.19522"/>
</svg>
